<svg id="logoPRIMICIAS_config1" xmlns="http://www.w3.org/2000/svg" width="154.707" height="162" viewBox="0 0 154.707 162">
  <g id="Group" transform="translate(25 47)">
    <path id="Path" d="M29.919,40.534V16.866L21.883,32.241H16.363L8.23,16.866V40.441H0V0H8.133L19.171,21.9,30.113,0h8.133V40.534Z" transform="translate(0.484 0.093)"/>
    <path id="Path-2" data-name="Path" d="M0,40.534V0H8.23V40.534Z" transform="translate(46.995 0.093)"/>
  </g>
  <g id="Group-2" data-name="Group">
    <path id="Shape" d="M8.408,40.534H0V0H16.717a14.892,14.892,0,0,1,10.46,3.751,12.11,12.11,0,0,1,3.783,8.922,11.959,11.959,0,0,1-3.821,8.875,14.974,14.974,0,0,1-10.423,3.7H8.408V40.533Zm0-33.452V18.17h7.814c3.727,0,6.232-2.209,6.232-5.5,0-3.344-2.5-5.591-6.232-5.591Z"/>
    <path id="Shape-2" data-name="Shape" d="M8.408,40.535H0V0H16.816A14.627,14.627,0,0,1,27.09,3.646a11.857,11.857,0,0,1,3.672,8.747,10.7,10.7,0,0,1-2.349,6.919,11.83,11.83,0,0,1-5.465,3.7l9.593,17.517H22.849L14.441,24.413H8.408V40.534Zm0-33.453V17.8h7.913c3.611,0,6.133-2.184,6.133-5.311s-2.579-5.4-6.133-5.4H8.408Z" transform="translate(34.576)"/>
    <path id="Path-3" data-name="Path" d="M0,40.534V0H8.408V40.534Z" transform="translate(72.702)"/>
  </g>
  <path id="Path-4" data-name="Path" d="M41,8H0V0H41Z" transform="translate(34 154)" fill="#4fa4db"/>
  <g id="Group-3" data-name="Group" transform="translate(32 92)">
    <path id="Path-5" data-name="Path" d="M15.552,42.236A15.6,15.6,0,0,1,4.108,37.649,11.337,11.337,0,0,1,.685,31.438,54.367,54.367,0,0,1,0,21.118,54.367,54.367,0,0,1,.685,10.8,11.633,11.633,0,0,1,4.108,4.587,15.761,15.761,0,0,1,15.552,0C23.768,0,29.734,4.682,31.2,13.091H22.79c-.88-3.536-3.13-5.924-7.14-5.924a6.3,6.3,0,0,0-5.282,2.2C8.607,11.18,8.314,13,8.314,21.118c0,8.027.391,9.938,2.054,11.753a6.727,6.727,0,0,0,5.282,2.2c4.01,0,6.26-2.293,7.14-5.924H31.2C29.832,37.553,23.67,42.236,15.552,42.236Z" transform="translate(0.782 0.382)"/>
    <path id="Path-6" data-name="Path" d="M0,41.567V0H8.314V41.567Z" transform="translate(39.743 0.669)"/>
    <path id="Shape-3" data-name="Shape" d="M8.7,41.567H0L15.454,0h6.554L37.558,41.565H28.952l-2.543-7.358H11.248L8.7,41.567ZM19.073,12.231l-5.379,15.1H24.257Z" transform="translate(52.762 0.669)"/>
    <path id="Path-7" data-name="Path" d="M15.552,42.236C9.1,42.236,4.206,40.9,0,36.789l5.38-5.256c2.641,2.58,6.358,3.536,10.27,3.536,4.891,0,7.531-1.816,7.531-5.16a4.784,4.784,0,0,0-1.272-3.536,6.359,6.359,0,0,0-3.717-1.433l-5.184-.669q-5.428-.717-8.216-3.44c-2.054-2.007-3.032-4.682-3.032-8.218C1.761,5.16,7.336,0,16.53,0,22.4,0,26.6,1.433,30.223,4.873L24.942,9.938C22.3,7.453,19.073,7.071,16.236,7.071c-4.4,0-6.553,2.389-6.553,5.256a3.928,3.928,0,0,0,1.272,2.962,7.312,7.312,0,0,0,3.912,1.624l4.988.669c3.912.478,6.358,1.529,8.118,3.249,2.25,2.1,3.326,5.16,3.326,8.791C31.3,37.649,24.453,42.236,15.552,42.236Z" transform="translate(91.407 0.382)"/>
  </g>
</svg>
